<?xml version="1.0" encoding="UTF-8"?>
<svg id="_レイヤー_1" data-name="レイヤー 1" xmlns="http://www.w3.org/2000/svg" viewBox="0 0 300 300">
  <defs>
    <style>
      .cls-1 {
        fill: #01c5d0;
      }

      .cls-2 {
        fill: #c6c6c6;
      }

      .cls-3 {
        fill: #5c5a53;
      }

      .cls-4 {
        fill: #fff;
      }

      .cls-5 {
        fill: #f2635f;
      }

      .cls-6 {
        fill: #333;
      }
    </style>
  </defs>
  <path class="cls-4" d="M191.66,78.47c1.46-1.4,3.42-1.93,5.1-1.87,3.66.13,5.22,2.11,5.89,3.27,2,3.47,1.92,9.86.57,13.81-.95,2.8-2.51,7.08-6.26,10.16-1.55,1.27-3.82,2.1-6,1.73l-.58-.1c-.69,2.28-1.54,4.52-2.06,5.6-1.62,4.39-10.98,20.42-22.54,25.23,0,1.76,0,3.52,0,5.28v-.2.94c-5.59,4.01-15.73,11.22-16.74,11.94h-3.54c-1.06-.75-12.05-8.56-17.45-12.44,0-.09,0-.13,0-.13,0,0,0-3.03,0-5.13-5.65-2.23-10.62-6.25-15.33-11.88-5.41-6.47-8.49-13.44-10.19-19.22-2.32.6-4.83-.27-6.49-1.63-3.75-3.07-5.31-7.36-6.26-10.16-1.34-3.95-1.43-10.34.57-13.81.67-1.16,2.23-3.14,5.89-3.27,1.68-.06,3.65.47,5.1,1.87,0,0-15.91-51.6,45.16-51.6s45.16,51.6,45.16,51.6Z"/>
  <path class="cls-6" d="M126.05,138.14v3.55c0,.51.22,1.05.59,1.41s.92.61,1.41.59,1.05-.19,1.41-.59.59-.87.59-1.41v-3.55c0-.51-.22-1.05-.59-1.41s-.92-.61-1.41-.59-1.05.19-1.41.59-.59.87-.59,1.41h0Z"/>
  <path class="cls-6" d="M163.78,137.92c0,1.22,0,2.45,0,3.67,0,.51.22,1.05.59,1.41s.92.61,1.41.59,1.05-.19,1.41-.59.59-.87.59-1.41v-.2c0-.51-.22-1.05-.59-1.41s-.92-.61-1.41-.59-1.05.19-1.41.59-.59.87-.59,1.41v.2c0,.51.22,1.05.59,1.41s.92.61,1.41.59,1.05-.19,1.41-.59.59-.87.59-1.41c0-1.22,0-2.45,0-3.67,0-.51-.22-1.05-.59-1.41s-.92-.61-1.41-.59-1.05.19-1.41.59-.59.87-.59,1.41h0Z"/>
  <path class="cls-3" d="M195.3,33.82c-2.04-3.38-4.61-6.26-7.77-9.12l-7.21-6.41c-9.35-10.42-21.78-13.3-34.02-13.3-12.85,0-24.11,3.65-34.36,11.29-2.29,1.71-6.78,5.88-9.68,10.08-6.28,6.14-11.29,19.57-10.91,32.88.05,5.39.47,11.59,2.19,17.87.74-.29,1.63-.48,2.69-.52,1.68-.06,3.65.47,5.1,1.87l2.02,1.42c.22-3.01.32-4.68.88-8.11.94-5.7,6.86-8.33,9.37-13.42,1.45-2.93,2.31-6.36,4.79-8.45,1.87-1.57,4.36-2.1,6.76-2.36,3.72-.39,16.31.17,20.51.95,3.56.2,7.01.91,12.09,1.56,2.75.35,7.86,1.25,9.82,1.64,7.68,1.77,10.63,3.68,14.49,8.91,1.48,2,3.05,5.66,4.51,10.42l5.08,7.44c1.46-1.4,3.42-1.93,5.1-1.87.98.03,1.8.2,2.5.45,1.67-6.66,2.39-11.67,2.13-17.8-.5-11.76-2.44-19.38-6.09-25.43Z"/>
  <path class="cls-6" d="M139.04,116.35c2.72,1.43,5.64,2.03,8.71,2.01s6.25-.62,8.73-2.55c.85-.66.7-2.13,0-2.83-.84-.84-1.97-.67-2.83,0,.59-.46.07-.06-.08.03-.18.11-.36.22-.55.32-.12.06-.76.34-.27.15-.25.1-.5.19-.76.27-1.59.51-2.84.61-4.52.6s-2.77-.12-4.32-.58c-.28-.08-.55-.18-.82-.28-.09-.03-.17-.08-.26-.1.49.15.12.06,0,0-.34-.16-.67-.33-1-.5-.95-.5-2.17-.24-2.74.72-.53.9-.24,2.23.72,2.74h0Z"/>
  <path class="cls-6" d="M146.87,95.66c.39,1.47.76,2.97.98,4.48l-.07-.53c.03.21.04.41.02.62l.07-.53c-.01.1-.04.19-.07.28l.2-.48c-.03.06-.06.12-.1.18l.31-.4c-.05.06-.09.1-.15.14l.4-.31c-.11.07-.23.13-.35.19l.48-.2c-.2.08-.39.14-.6.17l.53-.07c-.19.02-.37.02-.56,0l.53.07c-.21-.03-.42-.08-.63-.11-.56-.08-1.03-.1-1.54.2-.41.24-.81.72-.92,1.2-.12.51-.09,1.09.2,1.54.26.4.7.85,1.2.92.46.06.9.18,1.36.2.7.03,1.35-.18,1.97-.46.76-.35,1.36-1.02,1.56-1.84.17-.69.1-1.32-.02-2.02-.24-1.44-.58-2.87-.95-4.29-.27-1.01-1.44-1.73-2.46-1.4s-1.68,1.38-1.4,2.46h0Z"/>
  <path class="cls-6" d="M122.81,83.05c-.75,2.43-.26,8.02,4.34,8.5,6.09-.04,6.41-6.8,4.36-9.97-1.68-2.6-6.61-3.68-8.7,1.48Z"/>
  <path class="cls-6" d="M171.73,83.05c.75,2.43.26,8.02-4.34,8.5-6.09-.04-6.41-6.8-4.36-9.97,1.68-2.6,6.61-3.68,8.7,1.48Z"/>
  <path class="cls-6" d="M102.75,77.06c-2.91-2.62-7.2-3.19-10.72-1.45-2.57,1.27-4.03,3.84-4.68,6.55-1.53,6.44.1,13.77,3.8,19.22,2.66,3.92,6.48,6.79,11.41,6.13,1.07-.14,1.66-1.52,1.4-2.46-.32-1.16-1.39-1.54-2.46-1.4-3.68.5-6.5-3.32-8.01-6.15-1.39-2.61-2.4-5.55-2.63-8.5-.22-2.79-.2-6.38,1.6-8.72.47-.61,1.64-1.33,2.7-1.55,1.69-.35,3.46,0,4.76,1.16,1.91,1.72,4.75-1.1,2.83-2.83h0Z"/>
  <path class="cls-6" d="M193.08,79.88c1.3-1.17,3.07-1.51,4.76-1.16,1.06.22,2.23.94,2.7,1.55,1.79,2.34,1.81,5.93,1.6,8.72-.23,2.95-1.24,5.9-2.63,8.5-1.51,2.83-4.32,6.64-8.01,6.15-1.07-.14-2.15.26-2.46,1.4-.26.93.32,2.32,1.4,2.46,8.03,1.08,12.65-6.85,14.77-13.43,1.08-3.36,1.23-7.07.71-10.54-.43-2.85-1.57-5.6-3.96-7.32-3.5-2.53-8.58-1.96-11.7.85-1.92,1.73.92,4.55,2.83,2.83h0Z"/>
  <path class="cls-6" d="M189.31,101.63c-.67,3.24-1.83,6.33-3.1,9.38.18-.44-.01.02-.09.19-.08.17-.16.35-.24.52-.22.46-.45.91-.68,1.36-.56,1.07-1.17,2.12-1.8,3.15-3.28,5.37-7.28,10.45-12.17,14.44-2.67,2.18-5.73,3.95-9.11,4.73-2.51.58-1.45,4.44,1.06,3.86,6.8-1.57,12.44-6.53,16.88-11.69,3.71-4.3,7.15-9.15,9.51-14.34.22-.49.42-.99.63-1.49-.19.44.39-.89.43-.99.16-.38.31-.76.46-1.15.85-2.24,1.59-4.54,2.07-6.89.52-2.51-3.34-3.59-3.86-1.06h0Z"/>
  <path class="cls-6" d="M99.71,102.53c1.51,6.65,4.21,13.09,8,18.77,4.04,6.06,9.35,11.73,15.76,15.3,3.31,1.84,6.92,3.08,10.66,3.64,1.07.16,2.15-.27,2.46-1.4.26-.94-.32-2.3-1.4-2.46-13.44-1.99-23.48-13.6-28.61-25.52-1.3-3.02-2.29-6.18-3.02-9.39-.57-2.51-4.43-1.45-3.86,1.06h0Z"/>
  <path class="cls-6" d="M181.74,16.88c-6.33-6.98-14.83-11.31-24.07-12.93s-18.81-1.29-27.75,1.21-17.32,7.17-23.85,13.69c-1.77,1.77-3.43,3.66-4.92,5.68-1.16,1.56-2.55,2.92-3.66,4.54-2.59,3.79-4.43,8.14-5.74,12.52-1.67,5.56-2.5,11.42-2.4,17.22.1,6.12.58,12.22,2.09,18.17.64,2.49,4.49,1.44,3.86-1.06-1.27-4.98-1.8-10.07-1.92-15.2-.11-4.92.19-9.75,1.3-14.56.99-4.29,2.45-8.5,4.59-12.35.91-1.64,1.93-3.24,3.16-4.67,1.37-1.6,2.63-3.27,4.02-4.86,5.67-6.47,12.95-11.31,21.1-14.18s17.44-3.68,26.25-2.7c9.64,1.08,18.55,5.07,25.12,12.31,1.73,1.91,4.56-.92,2.83-2.83h0Z"/>
  <path class="cls-6" d="M201.34,76.97c1.13-4.61,1.97-9.3,2.09-14.05s-.28-9.08-.92-13.55c-.93-6.52-2.88-12.96-6.68-18.4-1.98-2.83-4.33-5.36-6.88-7.67-1.9-1.73-4.74,1.09-2.83,2.83,4.1,3.72,7.62,7.99,9.71,13.17,2.74,6.8,3.53,14.44,3.62,21.71.06,5.07-.76,9.99-1.96,14.9-.61,2.5,3.24,3.57,3.86,1.06h0Z"/>
  <path class="cls-6" d="M146.21,46.56c-3.61-.65-7.32-.82-10.97-.98s-7.16-.4-10.68.04c-2.75.34-5.42,1.04-7.57,2.87-1.92,1.63-2.98,3.97-3.94,6.24-.89,2.11-1.82,4.05-3.35,5.78s-3.13,3.15-4.51,4.89c-1.68,2.11-2.64,4.31-3.05,6.97-.43,2.83-.64,5.67-.86,8.52-.2,2.57,3.8,2.55,4,0,.32-4.08.08-8.96,2.56-12.42s5.86-5.66,7.67-9.44c.98-2.05,1.66-4.26,2.93-6.17,1.35-2.03,3.53-2.83,5.85-3.19,3.15-.5,6.48-.26,9.65-.13,3.69.14,7.9.3,11.21.89,1.06.19,2.16-.29,2.46-1.4.27-.97-.33-2.27-1.4-2.46h0Z"/>
  <path class="cls-6" d="M167.06,53.62c4.26.99,8.06,2.23,10.99,5.24,3.45,3.56,5.17,8.01,6.61,12.69.76,2.45,4.62,1.41,3.86-1.06-.93-3.01-1.98-6.03-3.44-8.82-1.08-2.06-2.58-3.97-4.2-5.64-3.46-3.57-8.01-5.17-12.75-6.27-2.5-.58-3.57,3.27-1.06,3.86h0Z"/>
  <path class="cls-6" d="M159.98,48.64c-.69-2.94-3.01-5.45-5.32-7.25-3.84-2.99-8.42-4.55-13.21-5.18-1.07-.14-2,1.02-2,2,0,1.2.92,1.86,2,2,2.13.28,4.26.85,6.25,1.68.62.26,1.62.76,2.34,1.18.39.23.77.46,1.15.72.19.13.39.26.58.4.06.04.5.37.22.15.62.48,1.21,1.01,1.76,1.57.23.24.46.48.68.73.12.14.24.28.35.43.09.11.07.08-.08-.1.06.08.12.16.18.24.34.49.66.98.92,1.51.05.11.1.23.15.33-.26-.48-.07-.2-.03-.05.07.24.15.47.21.71.25,1.05,1.45,1.68,2.46,1.4,1.08-.3,1.64-1.41,1.4-2.46h0Z"/>
  <path class="cls-4" d="M164.13,203.85c.3-.96.6-1.92.89-2.89.45-1.44.88-2.88,1.31-4.33,4.34-14.57,8.36-29.68,11.71-44.18h-.46c.69-1.86-.2-4.44-1.42-5.84-2.06-2.39-4.66-5.84-6.76-8.19-.89.72-19.14,15.11-20.52,16.09h-3.21c-1.38-.98-19.63-15.37-20.52-16.09-2.11,2.36-4.7,5.81-6.76,8.19-1.21,1.4-2.11,3.98-1.42,5.84h-.46c4.64,20.05,10.52,41.22,16.82,60.57,4.95,15.21,6.59,20.38,12.92,36.02h2.05c4.56-11.26,6.69-17.09,9.36-25.15,1.05-3.13,2.17-6.61,3.56-10.88.66-2.02,1.32-4.06,1.96-6.12.32-1.01.64-2.03.96-3.05Z"/>
  <path class="cls-2" d="M145.74,249.04c-6.34-15.64-7.97-20.8-12.92-36.02-6.69-20.54-12.9-43.12-17.66-64.24-2.15,1.37-4.85,3.27-7.59,5.44h-2.67l-6.98,2.74c-12.48,5.24-27.55,8.55-36.78,19.16-8.85,10.18-13.1,24.84-17.14,37.45-4.49,14.03-7.75,28.49-9.21,43.16-1.26,12.67,1.27,25.33,12.52,32.49,5.96,3.79,13.06,5.53,20.12,5.76,4.56.14,8.9-.37,13.09-1.42,26.74,0,171.9,0,171.9,0,.02-20.87-.3-36.91-1.81-57.72-1.26-17.38-3.34-36.59-13.15-51.51-6.63-10.09-19.15-16.94-33.17-23.12l-.72-.31c-2.22-.97-4.47-1.93-6.73-2.88l-6.98-2.74s-1.27,0-2.62,0c-3.17-2.59-6.41-4.89-8.89-6.48-4.76,21.12-10.97,43.7-17.66,64.24-4.95,15.21-6.59,20.38-12.92,36.02"/>
  <path class="cls-1" d="M141.78,237.72c-2.69-7.08-4.44-12.35-7.2-20.83,2-17.22,4.69-37.94,4.69-38.54,0-1.08-.25-2.15-.49-3.2-.12-.48-.23-.96-.33-1.44-.53-2.38-.62-3.6-1.24-6.12l-.48-1.63c2.99-4.04,6.7-8.95,8.93-11.46h3.21c2.28,2.57,6.11,7.65,9.14,11.74-.38,1.15-.63,1.9-.63,1.9-.82,1.7-1.04,3.4-1.5,4.89-.58,1.84-1.16,3.74-1.19,5.67-.02,1,2.72,20.04,5.29,38.1-.85,2.62-1.61,4.94-2.33,7.09-2.67,8.06-4.79,13.89-9.36,25.15h-2.05c-1.81-4.47-3.24-8.08-4.46-11.31Z"/>
  <path class="cls-6" d="M139.98,178.49c4.76,0,9.51-.1,14.26-.1,1.08,0,2-.92,2-2s-.92-2-2-2c-4.76,0-9.51.1-14.26.1-1.08,0-2,.92-2,2s.92,2,2,2h0Z"/>
  <path class="cls-6" d="M135.29,168.12c.43,1.82.72,3.66,1.1,5.48.33,1.57.96,3.24.88,4.86-.07,1.38-.32,2.77-.49,4.14-.82,6.66-1.66,13.31-2.48,19.97-.57,4.65-1.13,9.3-1.67,13.95-.13,1.07,1.01,2,2,2,1.19,0,1.87-.92,2-2,.94-8.08,1.94-16.15,2.94-24.22.57-4.54,1.38-9.13,1.69-13.7.11-1.66-.41-3.34-.77-4.95-.5-2.19-.82-4.41-1.34-6.6-.6-2.5-4.45-1.44-3.86,1.06h0Z"/>
  <path class="cls-6" d="M161.84,215.79c-1.12-7.88-2.25-15.76-3.36-23.64-.62-4.41-1.44-8.71-1.76-13.07-.09-1.21.2-2.42.51-3.58.56-2.07.99-4.39,1.88-6.35.44-.98.28-2.15-.72-2.74-.86-.5-2.29-.27-2.74.72-.85,1.87-1.24,3.84-1.84,5.8-.56,1.85-1.17,3.84-1.13,5.79.03,1.25.29,2.53.45,3.76.88,6.58,1.82,13.16,2.76,19.73.69,4.88,1.39,9.76,2.08,14.64.15,1.07,1.51,1.66,2.46,1.4,1.15-.32,1.55-1.39,1.4-2.46h0Z"/>
  <path class="cls-6" d="M150.23,249.57c9.96-24.59,17.81-50.06,24.56-75.7,2.15-8.15,4.16-16.33,6.01-24.56l-2.94,1.2c3.76,2.41,7.36,5.1,10.72,8.05,1.78,1.56,3.49,3.19,5.06,4.96.67.76,1.32,1.54,1.9,2.38.25.36.49.73.71,1.11.12.2.23.4.34.6.08.15.16.63.17.37l.27-1.01c-.2.39-1.37.79-1.74,1l-2.17,1.24-4.33,2.47c-1.09.62-1.34,2.26-.4,3.14,1.74,1.63,3.47,3.27,5.16,4.95.79.79,1.58,1.58,2.35,2.38.53.55,1.81,1.44,1.75,2.24-.03.4-.46.92-.64,1.28-.25.49-.5.97-.75,1.46-.58,1.12-1.16,2.24-1.74,3.36-1.11,2.12-2.22,4.24-3.35,6.35-4.59,8.64-9.31,17.22-14.1,25.75-2.74,4.89-5.5,9.76-8.28,14.63-1.28,2.24,2.18,4.26,3.45,2.02,5.22-9.13,10.38-18.3,15.43-27.53,2.49-4.55,4.96-9.12,7.39-13.7,1.19-2.25,2.38-4.5,3.55-6.76.54-1.04,1.08-2.09,1.62-3.14.58-1.12,1.33-2.28,1.42-3.57.19-2.71-2.4-4.68-4.11-6.41-2.07-2.09-4.21-4.12-6.35-6.14l-.4,3.14c2.02-1.15,4.04-2.31,6.07-3.46,1.74-.99,4.38-2.02,3.82-4.53-.3-1.33-1.28-2.67-2.07-3.76-.99-1.35-2.08-2.63-3.23-3.84-4.57-4.79-9.97-8.91-15.53-12.48-1.05-.68-2.66-.03-2.94,1.2-6.21,27.52-14.03,54.75-23.35,81.39-2.23,6.36-4.69,12.63-7.22,18.87-.41,1,.44,2.2,1.4,2.46,1.14.31,2.05-.39,2.46-1.4h0Z"/>
  <path class="cls-6" d="M132.32,248.7c-11.4-19.76-22.66-39.6-33.17-59.85-.71-1.37-1.63-2.77-2.17-4.22-.38-1.01,1.32-2.15,1.98-2.83,2.33-2.4,4.75-4.7,7.19-6.99.94-.88.69-2.52-.4-3.14-1.44-.82-2.89-1.65-4.33-2.47-.65-.37-1.3-.74-1.95-1.11-.36-.2-1.77-.76-1.96-1.13l.27,1.01c0,.21.02-.07.11-.25.1-.2.22-.4.33-.6.24-.42.51-.83.79-1.23.58-.84,1.23-1.62,1.9-2.38,1.57-1.77,3.29-3.4,5.06-4.96,3.36-2.95,6.96-5.64,10.72-8.06l-2.94-1.2c6.19,27.45,13.98,54.61,23.28,81.18,2.25,6.43,4.74,12.77,7.3,19.08.41,1,1.33,1.71,2.46,1.4.95-.26,1.8-1.45,1.4-2.46-9.96-24.59-17.82-50.07-24.58-75.72-2.14-8.14-4.15-16.32-6-24.54-.28-1.23-1.88-1.87-2.94-1.2-5.56,3.57-10.96,7.7-15.52,12.48-1.94,2.03-4.49,4.65-5.26,7.44-.69,2.52,1.81,3.56,3.56,4.56,2.1,1.2,4.19,2.39,6.29,3.59l-.4-3.14c-2.26,2.12-4.52,4.26-6.69,6.48-1.98,2.02-4.66,4.22-3.48,7.35,1,2.65,2.61,5.18,3.92,7.68s2.73,5.18,4.11,7.76c5.71,10.68,11.6,21.26,17.58,31.79,3.35,5.9,6.72,11.79,10.11,17.66,1.29,2.23,4.74.22,3.45-2.02h0Z"/>
  <path class="cls-6" d="M167.99,139.82c1.22,1.38,2.38,2.82,3.53,4.25,1.07,1.33,2.26,2.61,3.27,3.99.4.55.69,1.16.87,1.82.1.35.16.69.16,1.06,0,.13-.09.82,0,.54-.16.47-.53.94-.79,1.35-2.47,4.06-5.2,8.01-8.23,11.67-1.68,2.02-3.58,4.23-5.68,5.6l2.74.72c-4.45-5.95-8.65-12.17-13.58-17.74l-.4,3.14c6.23-4.46,12.14-9.46,18.15-14.21.93-.73,1.86-1.46,2.78-2.2.84-.68.71-2.12,0-2.83-.83-.83-1.98-.68-2.83,0-5.72,4.62-11.54,9.12-17.34,13.64-.39.3-.77.6-1.16.9-.15.11-.29.23-.44.34-.38.29.2-.15-.15.11s-.68.53-1.03.78c-1.09.78-1.32,2.11-.4,3.14,4.7,5.32,8.7,11.26,12.95,16.93.62.83,1.75,1.36,2.74.72,4.8-3.14,8.35-8.34,11.58-12.97,1.32-1.9,2.6-3.83,3.81-5.81.35-.58.75-1.17.97-1.81.62-1.76.26-3.75-.46-5.42-.84-1.96-2.44-3.5-3.76-5.14-1.47-1.82-2.92-3.67-4.47-5.42-1.71-1.93-4.53.91-2.83,2.83Z"/>
  <path class="cls-6" d="M123.73,136.99c-1.37,1.54-2.65,3.15-3.94,4.76-1.19,1.48-2.59,2.9-3.62,4.49-1.58,2.43-1.96,5.52-.47,8.04,2.65,4.48,5.7,8.8,9,12.82,1.96,2.39,4.08,4.76,6.68,6.46.98.64,2.12.11,2.74-.72,4.25-5.68,8.25-11.61,12.95-16.93.91-1.03.68-2.36-.4-3.14-.29-.2-.56-.42-.84-.63-.12-.09-.23-.18-.35-.27.28.21.12.09-.05-.04-.31-.24-.62-.48-.93-.73-1.6-1.24-3.19-2.49-4.78-3.74-3.47-2.72-6.93-5.44-10.38-8.17-.93-.73-1.86-1.46-2.78-2.2-.84-.68-2.01-.82-2.83,0-.7.7-.85,2.15,0,2.83,5.82,4.7,11.74,9.28,17.65,13.88,1.09.85,2.16,1.72,3.28,2.52l-.4-3.14c-4.93,5.58-9.12,11.79-13.58,17.74l2.74-.72c-1.77-1.16-3.42-2.96-4.88-4.66-1.79-2.07-3.43-4.27-5.01-6.51-1.28-1.82-2.52-3.68-3.69-5.58-.33-.54-.71-1.07-.98-1.64-.16-.33-.13-.07-.12-.53,0-.73.14-1.42.43-2.09.71-1.62,2.23-2.99,3.33-4.36,1.33-1.66,2.66-3.33,4.07-4.92,1.7-1.92-1.12-4.76-2.83-2.83Z"/>
  <path class="cls-6" d="M112.58,273.95c-13.16,9.69-27.71,19.42-44.72,19.04-8.1-.18-16.78-2.46-22.88-8.05-5.19-4.76-7.72-11.51-8.31-18.43-.71-8.39.82-17.02,2.35-25.24,1.74-9.32,4.15-18.5,7.03-27.53,2.45-7.66,4.77-15.42,8.16-22.73,3.21-6.93,7.37-13.73,13.6-18.35,6.09-4.52,13.25-7.24,20.31-9.83,5.2-1.91,10.35-3.94,15.51-5.97l1.81-.71c1-.39,1.7-1.34,1.4-2.46-.26-.96-1.45-1.79-2.46-1.4-4.34,1.71-8.67,3.49-13.04,5.11-7.45,2.77-15.12,5.29-21.96,9.41s-12.3,10.28-16.24,17.46-6.86,15.62-9.45,23.72c-2.91,9.09-5.63,18.2-7.6,27.55-1.01,4.81-1.85,9.65-2.5,14.52-.58,4.3-1.13,8.63-1.08,12.98.09,7.5,1.83,15.17,6.47,21.22,5.25,6.85,13.51,10.71,21.9,12.08,8.52,1.39,17.21.49,25.33-2.4s15.71-7.52,22.83-12.51c1.88-1.32,3.73-2.66,5.57-4.02.87-.64,1.3-1.73.72-2.74-.5-.86-1.86-1.36-2.74-.72h0Z"/>
  <path class="cls-6" d="M189.34,157.19c7.38,2.9,14.72,5.89,21.84,9.4,9.04,4.45,18.61,9.9,24.37,18.45,6.32,9.38,9.33,20.57,11.06,31.63,1.82,11.6,2.41,23.44,2.98,35.15.68,13.9.84,27.81.83,41.73,0,2.57,4,2.58,4,0,.01-12.72-.11-25.44-.66-38.15-.53-12.17-1.17-24.41-2.81-36.49-1.56-11.49-4.33-23.07-10.23-33.15-5.5-9.39-14.3-15.69-23.75-20.71-8.56-4.54-17.55-8.18-26.55-11.72-1.01-.39-2.2.43-2.46,1.4-.31,1.13.39,2.06,1.4,2.46h0Z"/>
  <path class="cls-6" d="M212.38,293.56c.67-18.82,1.1-37.65,1.47-56.48.11-5.38.21-10.77.31-16.15.05-2.57-3.95-2.58-4,0-.36,18.73-.71,37.46-1.26,56.19-.16,5.48-.34,10.97-.53,16.45-.09,2.57,3.91,2.57,4,0h0Z"/>
  <g>
    <path class="cls-4" d="M108.97,222.35c3.95-5.73,7.66-11.53,10.47-18.01.88-2.02,1.71-4.15,3.31-5.66,1.6-1.51,4.24-2.19,6.02-.89.85.62,1.37,1.59,1.77,2.56,1.8,4.35,1.66,9.47-.47,13.69,8.43-5.21,17.29-11.22,25.96-16.14,2.84-1.61,5.78-3.22,8.97-2.51,3.8.84,6.46,5.82,2.99,9.45,2.31-1.38,4.8-2.47,7.46-2.06,2.82.43,5.08,3.13,4.32,5.88-.41,1.49-.91,3.05-2.21,3.89-.63.41-1.25.81-1.86,1.21-2.43.47.91-.18.91-.18,1.61-.31,3.06.04,4.07.77,1.08.78,1.76,2.86,1.48,4.16s-.7,2.91-1.75,3.73c-1.93,1.51-3.73,2.89-5.48,4.21,2.79-.42,4.7,2.3,4.72,4.05.02,1.74-.54,3.51-1.96,4.51-7.49,5.24-14.12,9.34-21.85,13.28-3.93,2-7.57,4.53-11.45,6.62-1.97,1.06-3.99,2.02-6.02,2.97-2.27,1.07-4.55,2.14-6.82,3.21-1.69.8-3.39,1.59-5.12,2.29-2.42.97-5.12.86-7.5-.21-4.54-2.05-8.73-4.84-12.4-8.2-2.69-2.46-5.09-5.22-7.15-8.22-2.21-3.22-2.14-7.49.1-10.69,1.43-2.03,2.87-4.14,4.29-6.26,1.74-2.5,3.48-4.95,5.19-7.42Z"/>
    <path class="cls-4" d="M169.58,200.41c-.29-2.4-2.21-4.51-4.56-5.03-3.19-.7-6.13.9-8.97,2.51-4.08,2.31-8.19,4.86-12.29,7.46"/>
    <path class="cls-6" d="M102.06,228.76c-2.48,3.67-5.83,7.25-6.25,11.83s2.17,7.87,4.84,11.08,5.73,5.99,9.09,8.43c1.69,1.23,3.46,2.34,5.29,3.33s3.77,2.03,5.83,2.38c4.78.82,9.02-1.77,13.19-3.73s8.77-3.97,12.93-6.36,7.96-4.71,12.06-6.88,7.83-4.35,11.61-6.75c2.18-1.39,4.33-2.82,6.46-4.29s3.87-2.83,4.35-5.49c.36-1.98.06-3.81-1.19-5.43s-3.24-2.66-5.35-2.45c-1.07.11-2,.84-2,2,0,1,.92,2.11,2,2,2.61-.26,3.5,2.81,1.96,4.6-.56.64-1.48,1.11-2.18,1.59-.89.61-1.78,1.22-2.68,1.81-1.61,1.07-3.24,2.13-4.89,3.15-3.37,2.1-6.8,4.07-10.31,5.92s-7.02,3.9-10.49,5.97-7.34,3.89-11.12,5.67c-1.92.9-3.83,1.81-5.75,2.7-1.71.8-3.51,1.81-5.39,2.11-3.56.56-7.14-1.87-10.01-3.7s-5.72-4.15-8.18-6.69c-1.38-1.42-2.69-2.92-3.86-4.52-1.1-1.49-2.1-2.99-2.26-4.89s.46-3.7,1.56-5.29c1.39-2.02,2.79-4.03,4.16-6.07,1.44-2.14-2.02-4.14-3.45-2.02h0Z"/>
    <path class="cls-6" d="M130.82,215.91c6.82-4.21,13.49-8.66,20.34-12.82,1.68-1.02,3.37-2.03,5.08-3.01,1.57-.9,3.16-1.89,4.89-2.45,2.95-.96,6-.04,6.52,3.31.16,1.07,1.51,1.66,2.46,1.4,1.14-.31,1.56-1.39,1.4-2.46-.59-3.83-4-6.52-7.78-6.66-4.25-.16-8.23,2.65-11.73,4.71-7.86,4.64-15.42,9.74-23.19,14.53-2.19,1.35-.18,4.81,2.02,3.45h0Z"/>
    <path class="cls-6" d="M144.04,221.96c4.54-2.87,9.12-5.69,13.7-8.5,2.16-1.32,4.32-2.64,6.47-3.96s4.19-2.73,6.42-3.83c1.7-.84,4.03-1.53,5.79-.46,1.58.96,1.66,2.34,1.12,3.94-.7,2.08-3.03,2.99-4.77,4.1-2.1,1.34-4.21,2.67-6.33,3.99-4.81,3-9.64,5.96-14.45,8.96-2.18,1.36-.17,4.82,2.02,3.45,4.87-3.04,9.77-6.04,14.64-9.08,2.38-1.49,4.76-2.98,7.12-4.5,1.16-.75,2.44-1.43,3.5-2.33.98-.84,1.57-2,2.01-3.19.84-2.29.89-4.68-.59-6.72s-3.65-3.04-6.07-3.14c-2.75-.11-5.38,1.08-7.69,2.45-2.53,1.51-5.03,3.08-7.55,4.62-5.81,3.55-11.61,7.1-17.36,10.74-2.17,1.37-.17,4.83,2.02,3.45h0Z"/>
    <path class="cls-6" d="M177.15,215.49c.96-.16,2.16,0,2.69.9.56.96.39,1.83.09,2.83-.41,1.37-1.36,1.94-2.46,2.79-1.26.98-2.53,1.94-3.81,2.9-5,3.74-10.19,7.18-15.59,10.31-2.23,1.29-.21,4.75,2.02,3.45,6.7-3.88,13.01-8.28,19.13-13.01,1.51-1.16,3.2-2.17,4.02-3.96.71-1.54,1.16-3.29.87-4.98-.68-4.03-4.23-5.71-8.03-5.09-1.07.17-1.66,1.5-1.4,2.46.31,1.13,1.39,1.57,2.46,1.4h0Z"/>
    <path class="cls-6" d="M132.7,212.97c1.41-3.94,1.48-8.4.08-12.36-.66-1.88-1.61-3.83-3.44-4.82-1.65-.89-3.64-.87-5.35-.19-4.05,1.59-5.35,5.79-7.03,9.4-1.84,3.96-4.05,7.75-6.42,11.41-2.71,4.2-5.63,8.25-8.49,12.35-1.47,2.12,1.99,4.12,3.45,2.02,5.48-7.86,11.22-15.62,15.2-24.39.86-1.91,1.54-4.08,2.9-5.71.87-1.05,2.74-2.25,4.06-1.23,1.48,1.13,1.93,4.15,2.08,5.86.19,2.27-.13,4.46-.9,6.6-.87,2.43,3,3.47,3.86,1.06h0Z"/>
  </g>
  <path class="cls-5" d="M243.55,130.18c-3.65,4.36-7.31,8.72-10.96,13.07-.69.83-.81,2.02,0,2.83.71.71,2.13.83,2.83,0,3.65-4.36,7.31-8.72,10.96-13.07.69-.83.81-2.02,0-2.83-.71-.71-2.13-.83-2.83,0h0Z"/>
  <path class="cls-5" d="M264.97,164.58c-5.79,1.26-11.58,2.51-17.37,3.77-1.06.23-1.67,1.46-1.4,2.46.3,1.09,1.4,1.63,2.46,1.4,5.79-1.26,11.58-2.51,17.37-3.77,1.06-.23,1.67-1.46,1.4-2.46-.3-1.09-1.4-1.63-2.46-1.4h0Z"/>
  <path class="cls-5" d="M264.49,140.87c-7.62,4.8-15.24,9.59-22.86,14.39-2.17,1.37-.17,4.83,2.02,3.45,7.62-4.8,15.24-9.59,22.86-14.39,2.17-1.37.17-4.83-2.02-3.45h0Z"/>
</svg>