<?xml version="1.0" encoding="UTF-8"?>
<svg id="_レイヤー_1" data-name="レイヤー_1" xmlns="http://www.w3.org/2000/svg" version="1.1" viewBox="0 0 1000 87">
  <!-- Generator: Adobe Illustrator 30.3.0, SVG Export Plug-In . SVG Version: 2.1.3 Build 182)  -->
  <path d="M44.8,78.29v-7.88c0-1.83-.09-2.29-.46-5.04l9.07.28c.37,0,1.19.09,1.19.92,0,.46-.09.92-.64,2.02v13.84H9.07v3.85H.18v-15.86c0-2.38-.09-4.31-.18-5.13l8.8.46c.37,0,.92.09.92.73,0,.46-.28.92-.64,1.56v10.27h13.01v-16.96h-13.38V10.54h18.87c3.39-4.86,4.4-6.69,5.77-10.54l9.8,2.57c.46.09,1.01.37,1.01.83,0,.92-.73,1.19-2.11,1.74-3.02,2.75-3.3,3.03-6.05,5.41h35.18v27.14H18.32v7.79h65.23v4.13H18.32v7.7h63.13c-2.11,28.05-5.41,29.52-16.86,29.52h-5.41l-1.83-4.58c1.28.18,4.03.55,6.14.55,2.75,0,3.76-.82,4.67-3.03,1.83-4.22,2.84-14.58,3.3-18.43H30.97v16.96h13.83ZM18.32,22h43.43v-7.33H18.32v7.33ZM61.75,26.13H18.32v7.52h43.43v-7.52Z"/>
  <path d="M104.73,80.12v4.31h-9.9V7.98h76.41v76.46h-9.71v-4.31h-56.8ZM128.46,41.53V12.01h-23.73v29.52h23.73ZM128.46,76v-30.44h-23.73v30.44h23.73ZM161.53,41.53V12.01h-23.36v29.52h23.36ZM138.17,45.56v30.44h23.36v-30.44h-23.36Z"/>
  <path d="M230.53,49.05v4.03h-14.57v18.98c11.18-3.03,12.46-3.39,18.05-5.04l-.18,5.32c-15.85,5.23-29.78,9.26-46.18,13.38-.37.55-.82,1.28-1.47,1.28-.55,0-.82-.46-1.1-1.1l-2.66-6.51c1.74-.27,5.31-.92,7.15-1.28v-28.51c0-1.74-.09-3.48-.37-5.41l8.8.18c.82,0,1.65,0,1.65,1.19,0,.64-.27,1.19-.92,2.48v28.14c3.57-.73,5.31-1.19,8.15-1.83v-34.75c0-3.39-.18-4.77-.37-6.05l9.35.18c.73,0,1.37.09,1.37,1.19,0,.64-.46,1.28-1.28,2.57v11.55h14.57ZM241.06,1.92c.64,0,1.28.18,1.28.92,0,.64-.46,1.38-1.01,2.02-.09,8.34,0,14.39.27,20.72h24.37v4.13h-24.1c.37,6.97,1.83,28.97,8.34,40.8,1.28,2.38,3.94,6.23,5.68,6.23,2.11,0,3.3-4.77,4.86-12.47,2.38,2.11,4.12,3.3,7.24,4.49-1.1,4.95-3.76,17.6-11.73,17.6-14.2,0-19.7-27.69-20.34-30.8-1.92-9.44-2.47-16.14-3.21-25.85h-48.83v-4.13h48.56c-.18-3.12-.64-16.87-.73-19.71-.09-2.57-.18-2.84-.64-4.31l9.99.37ZM225.76,9.35v4.13h-33.08v-4.13h33.08ZM257.1,24.29c-2.47-5.87-7.33-13.11-10.44-16.59l3.57-3.48c1.74,1.38,9.07,6.6,14.38,13.29l-7.51,6.78Z"/>
  <path d="M308.41,69.67c.55.37.92.73.92,1.1,0,.73-.82.92-2.38,1.19-11.45,7.88-18.87,11.46-30.69,14.76l-3.02-3.85c12-3.94,22.72-12.1,26.57-19.07l8.61,5.87ZM358.53,58.21v4.03h-84.47v-4.03h8.34V12.83h19.42v-6.23c0-1.38-.18-3.94-.55-5.32l9.44.28c.64,0,1.1.09,1.1.64s-.37,1.38-.64,1.93v8.71h10.08v-5.68c0-2.93-.18-4.13-.46-5.87l9.53.28c.37,0,1.01.09,1.01.64,0,.46-.37,1.1-.82,1.93v8.71h19.61v45.38h8.43ZM301.81,35.11v-18.24h-9.99v18.24h9.99ZM301.81,58.21v-18.98h-9.99v18.98h9.99ZM321.24,35.11v-18.24h-10.08v18.24h10.08ZM321.24,58.21v-18.98h-10.08v18.98h10.08ZM333.15,63.35c7.24,9.44,16.77,15.86,25.65,19.34l-2.75,4.13c-16.67-4.49-27.67-13.66-31.33-16.87l8.43-6.6ZM340.66,35.11v-18.24h-10.17v18.24h10.17ZM340.66,58.21v-18.98h-10.17v18.98h10.17Z"/>
  <path d="M443.65,5.32v71.97c0,6.97-1.74,8.62-8.25,8.62h-14.93l-1.37-5.32c2.84.73,8.52,1.28,11.27,1.28,3.94,0,4.12-1.83,4.12-5.23V9.35h-66.52v-4.03h75.68ZM426.61,23.47v4.03h-56.62v-4.03h56.62ZM419.37,40.34v31.54h-33.99v4.58h-9.8v-36.12h43.79ZM385.38,44.46v23.38h24.46v-23.38h-24.46Z"/>
  <path d="M471.23,43.18c-5.96-7.06-9.16-10.36-14.48-14.58l2.47-3.67c7.6,3.12,17.41,9.44,18.05,9.81l-6.05,8.43ZM480.48,50.42c-2.02,5.04-12.09,30.62-12.46,31.44-.55,1.47-.64,2.02-.92,3.58,0,.27-.27,1.19-1.01,1.19-.37,0-.73,0-1.37-.55l-7.6-5.78c5.59-5.41,14.66-21.73,19.61-33.28l3.76,3.39ZM475.63,17.97c-3.21-3.85-9.99-10.27-13.93-13.11l2.47-3.58c7.24,3.12,10.72,5.04,18.05,9.35l-6.6,7.33ZM538.3,17.42v4.03h-23.64v19.99h26.84v4.13h-28.59c-5.77,10.54-12.64,20.54-19.97,30.07,15.94-1.56,23-2.57,34.17-4.22-1.1-2.11-4.4-8.34-10.35-16.13l3.76-2.48c7.97,7.06,18.05,20.99,21.99,28.05l-8.52,5.59c-1.1-2.84-2.38-6.05-4.95-11.28-14.11,2.93-26.84,5.41-47.64,8.62-1.01,1.19-1.28,1.65-1.83,1.65-.37,0-1.01-.46-1.28-1.01l-3.12-7.7c3.94,0,5.68-.09,10.99-.46,4.49-6.05,12.83-21.91,15.58-30.71h-23.91v-4.13h26.94v-19.99h-23.09v-4.03h23.09V7.88c0-4.4-.37-5.32-.73-6.42l10.44.27c.18,0,1.01.09,1.01.64s-.55,1.47-.83,2.02v13.02h23.64Z"/>
  <path d="M633.22,18.15v4.03h-9.71v9.53h-27.85v5.13h29.41v4.13h-29.41v5.13h37.57v4.13h-84.47v-4.13h37.2v-5.13h-29.04v-4.13h29.04v-5.13h-29.04v-4.13h29.04v-5.41h-37.2v-4.03h37.2v-5.5h-29.04v-4.22h29.04v-2.02c0-2.57-.09-3.67-.18-5.23l9.25.37c.46,0,1.28.09,1.28.92,0,.46-.09,1.01-.64,2.02v3.94h27.85v9.72h9.71ZM569.64,82.14v4.22h-9.62v-31.26h61.75v31.26h-9.71v-4.22h-42.42ZM612.06,66.37v-7.24h-42.42v7.24h42.42ZM612.06,78.02v-7.52h-42.42v7.52h42.42ZM613.98,18.15v-5.5h-18.32v5.5h18.32ZM595.66,22.19v5.41h18.32v-5.41h-18.32Z"/>
  <path d="M677.94,8.43c0-2.29-.09-4.4-.64-7.15l10.35.37c.37,0,1.19.18,1.19.92,0,.46-.09.73-1.19,2.66v29.52h37.2v4.03h-37.2v39.88h30.97v4.03h-71.92v-4.03h31.24v-39.88h-37.2v-4.03h37.2V8.43Z"/>
  <path d="M816.75,55.83v4.03h-8.15v15.13h-9.35v-3.85h-20.34v5.41c0,6.05-1.01,9.26-9.25,9.26h-12l-1.83-5.04c4.76,1.01,7.7,1.1,8.98,1.1,4.67,0,4.76-2.29,4.76-5.87v-4.86h-29.5v-4.13h29.5v-7.15h-37.47v-4.03h37.47v-7.24h-29.5v-4.13h29.5v-6.33h-27.3v-16.87h27.3v-6.69h-35.18v-4.03h35.18v-4.49c0-1.56-.18-3.3-.92-4.95l10.26.27c.37,0,1.01.37,1.01.92,0,.37-.18,1.1-1.01,3.12v5.13h35.91v4.03h-35.91v6.69h27.21v16.87h-27.21v6.33h29.69v11.37h8.15ZM769.56,34.01v-8.71h-18.14v8.71h18.14ZM778.91,25.3v8.71h18.14v-8.71h-18.14ZM799.25,55.83v-7.24h-20.34v7.24h20.34ZM799.25,67.01v-7.15h-20.34v7.15h20.34Z"/>
  <path d="M848.36,77.37c0,6.51-2.2,7.98-9.44,7.98h-8.7l-1.74-4.77c2.11.27,4.95.64,7.15.64,3.66,0,4.03-.92,4.03-3.85v-24.11c-1.19,2.29-5.86,10.82-14.29,18.7l-3.02-3.03c7.88-8.98,13.93-22.64,16.03-32.73h-14.84v-4.13h21.07c-3.12-4.49-8.89-10.45-15.03-14.58l2.75-3.39c2.29.92,4.31,1.83,10.99,5.78,5.31-7.43,5.86-8.25,6.96-10.45h-24.28v-4.03h36.92v3.21c-6.14,6.23-9.62,9.53-14.93,14.21,2.66,1.83,3.39,2.38,4.49,3.39l-6.51,5.87h20.8c-4.95,11.28-9.53,16.78-11.82,19.53l-3.66-2.38c3.21-5.41,4.4-11.18,4.76-13.02h-7.7v41.16ZM901.14,15.31c-1.01,5.78-3.21,13.11-10.54,20.26,3.21,2.48,7.79,5.59,18.69,8.89l-2.47,3.67c-10.63-2.29-17.59-6.23-21.07-8.53-2.29,1.56-5.41,3.48-10.54,5.5l8.98.46c.37,0,1.1.09,1.1.82s-.46,1.65-.64,2.11c-.18,1.65-.28,2.93-.73,5.96h21.71c-1.92,28.05-3.39,30.99-13.74,30.99h-10.54l-1.92-4.49c2.57.46,4.86.64,7.33.64,3.94,0,5.5-.73,6.41-3.21,1.28-3.39,2.29-11.46,2.84-19.89h-13.01c-2.29,8.34-7.33,20.08-27.94,27.59l-2.93-3.39c6.23-2.66,17.32-8.53,21.53-24.2h-16.95v-4.03h17.77c.18-.83.37-2.2.37-4.22,0-.64,0-2.75-.73-4.77-3.02,1.19-5.5,1.83-9.53,2.93l-2.75-3.48c9.8-2.75,15.03-5.96,18.78-9.17-1.47-1.28-7.06-6.14-10.35-14.85-3.85,4.58-5.41,6.05-7.42,7.88l-4.03-2.02c6.05-7.61,10.9-16.23,12.64-25.76l10.35,2.75c.37.09.82.27.82.73,0,.64-.55,1.01-1.65,1.65-1.1,1.83-1.83,3.03-3.3,5.04h30.33v4.13h-6.87ZM874.66,15.31c-1.1,1.47-1.56,2.02-2.84,3.76l6.6-2.02c1.01,3.12,2.29,7.61,7.15,13.48,4.03-5.32,5.41-10.08,6.14-15.22h-17.04Z"/>
  <path d="M953.18,24.57v31.44h-22.9c-.46,7.06-2.02,18.15-12.19,28.88l-4.31-2.75c7.33-10.36,7.33-19.89,7.33-27.96v-29.61h32.07ZM955.2,5.87v4.03h-37.75v-4.03h37.75ZM930.37,28.69v23.19h14.2v-23.19h-14.2ZM969.95,39.24c0,11.55-.73,32.64-18.87,46.2l-3.94-2.57c8.8-8.34,13.38-16.59,13.38-40.61V6.97l8.43,1.38c6.23,0,19.06-2.38,24.92-5.87l4.4,5.59c.46.55.64.83.64,1.1,0,.73-.64.73-1.56.73-1.28,0-1.56,0-2.66.28-3.39.82-14.39,2.84-24.74,2.84v20.26h30.05v4.13h-8.98v48.68h-9.35v-48.68h-11.73v1.83Z"/>
</svg>